#!OML:ASF H:\ManfredETheater\Project 1\Capture day 1\Session 1\subject.ASF
:FULLY-SPECIFIED
:DEGREES
826
root 2.5015 17.5133 -4.35275 2.3059 18.1079 3.52243
lowerback 3.13126 -4.75263 -8.70929
upperback -2.85376 -6.79697 -0.0328303
thorax -3.73626 -3.12812 5.18196
lowerneck -17.3133 -2.86468 -3.22927
upperneck 23.1348 -3.78913 2.62534
head 10.3815 -1.71195 0.943878
rclavicle -1.95492e-014 -2.84262e-014
rhumerus -50.6916 -7.69281 -34.6022
rradius 51.1925
rwrist -4.45313
rhand -5.0114 -12.0362
rfingers 7.12502
rthumb 20.7825 -40.9433
lclavicle -1.95492e-014 -2.84262e-014
lhumerus -33.0304 4.4328 74.3425
lradius 59.4833
lwrist -9.55585
lhand -18.6772 2.09537
lfingers 7.12502
lthumb 7.61668 31.9382
rfemur -19.2127 -12.6924 18.6314
rtibia 51.0248
rfoot -21.9434 -0.63369
rtoes 4.92771
lfemur -18.7967 8.35279 -22.6797
ltibia 46.4247
lfoot -18.3987 -20.0001
ltoes 14.9942
827
root 2.44991 17.5033 -4.35342 2.24595 18.3655 3.18171
lowerback 3.21511 -4.84589 -8.31847
upperback -2.84324 -6.90875 -0.01219
thorax -3.79515 -3.19251 5.00125
lowerneck -17.354 -2.85488 -3.24325
upperneck 23.1266 -3.78852 2.69657
head 10.3881 -1.70395 0.971152
rclavicle 4.54347e-014 -1.07344e-014
rhumerus -50.8832 -7.78073 -34.4785
rradius 50.9681
rwrist -4.32708
rhand -5.27716 -12.0314
rfingers 7.12502
rthumb 20.5271 -40.9662
lclavicle 4.54347e-014 -1.07344e-014
lhumerus -32.4622 3.87447 74.6422
lradius 59.9991
lwrist -9.73263
lhand -18.4242 1.84643
lfingers 7.12502
lthumb 7.86091 31.6803
rfemur -18.506 -12.4116 19.3979
rtibia 49.6382
rfoot -22.8468 -1.60901
rtoes 6.31884
lfemur -19.963 9.27514 -22.0025
ltibia 48.1771
lfoot -16.862 -21.518
ltoes 15.6071
828
root 2.39686 17.495 -4.35679 2.16686 18.6156 2.8199
lowerback 3.32527 -4.93176 -7.9158
upperback -2.8211 -7.01115 0.0107139
thorax -3.86059 -3.25271 4.81884
lowerneck -17.4005 -2.85006 -3.25516
upperneck 23.1161 -3.79613 2.77109
head 10.3953 -1.69907 0.998032
rclavicle 7.37367e-014 2.14687e-014
rhumerus -51.0698 -7.89102 -34.3723
rradius 50.7298
rwrist -4.18685
rhand -5.50209 -12.035
rfingers 7.12502
rthumb 20.3109 -40.9929
lclavicle 7.37367e-014 2.14687e-014
lhumerus -31.862 3.30782 74.9079
lradius 60.5585
lwrist -9.95675
lhand -18.1593 1.5842
lfingers 7.12502
lthumb 8.11656 31.4083
rfemur -17.899 -12.1015 20.159
rtibia 48.3973
rfoot -23.543 -2.49085
rtoes 7.61677
lfemur -21.2899 10.2346 -21.2898
ltibia 50.1344
lfoot -14.8132 -23.0548
ltoes 16.2301
829
root 2.34239 17.4882 -4.3624 2.0684 18.8639 2.43891
lowerback 3.4568 -5.01091 -7.50653
upperback -2.78519 -7.10445 0.0356068
thorax -3.92686 -3.30898 4.63664
lowerneck -17.4533 -2.85196 -3.26776
upperneck 23.1001 -3.81433 2.85209
head 10.4022 -1.69827 1.02576
rclavicle 4.94601e-014 1.86858e-014
rhumerus -51.2559 -8.02115 -34.2832
rradius 50.4859
rwrist -4.04572
rhand -5.67365 -12.0464
rfingers 7.12502
rthumb 20.146 -41.0218
lclavicle 4.94601e-014 1.86858e-014
lhumerus -31.2369 2.73715 75.131
lradius 61.17
lwrist -10.2255
lhand -17.8962 1.32239
lfingers 7.12502
lthumb 8.37053 31.1365
rfemur -17.3754 -11.7747 20.9096
rtibia 47.2933
rfoot -24.0627 -3.25919
rtoes 8.78039
lfemur -22.7842 11.1879 -20.5401
ltibia 52.2833
lfoot -12.1994 -24.5224
ltoes 16.8077
830
root 2.28673 17.4826 -4.36973 1.94705 19.1154 2.03928
lowerback 3.60722 -5.0839 -7.09382
upperback -2.73347 -7.18896 0.0629396
thorax -3.98984 -3.36157 4.45644
lowerneck -17.5108 -2.86183 -3.28388
upperneck 23.075 -3.8445 2.94149
head 10.4075 -1.70222 1.05529
rclavicle 5.76848e-014 -2.5842e-015
rhumerus -51.445 -8.16551 -34.2098
rradius 50.2432
rwrist -3.91418
rhand -5.78288 -12.068
rfingers 7.12502
rthumb 20.0411 -41.0545
lclavicle 5.76848e-014 -2.5842e-015
lhumerus -30.5943 2.17086 75.304
lradius 61.838
lwrist -10.5305
lhand -17.6519 1.07755
lfingers 7.12502
lthumb 8.60627 30.8821
rfemur -16.9162 -11.4534 21.6463
rtibia 46.3126
rfoot -24.4325 -3.90009
rtoes 9.79169
lfemur -24.4408 12.0886 -19.7506
ltibia 54.5955
lfoot -9.03562 -25.8013
ltoes 17.2311
831
root 2.2303 17.478 -4.37829 1.79612 19.3719 1.62048
lowerback 3.77732 -5.15064 -6.67868
upperback -2.66449 -7.26438 0.0937976
thorax -4.04809 -3.41029 4.2798
lowerneck -17.5687 -2.88013 -3.30618
upperneck 23.0371 -3.88659 3.03971
head 10.4089 -1.71116 1.08726
rclavicle -5.09386e-014 6.55989e-015
rhumerus -51.6375 -8.31603 -34.1504
rradius 50.0059
rwrist -3.79821
rhand -5.82495 -12.1041
rfingers 7.12502
rthumb 20.0006 -41.0948
lclavicle -5.09386e-014 6.55989e-015
lhumerus -29.9421 1.62122 75.4213
lradius 62.5626
lwrist -10.856
lhand -17.4442 0.863353
lfingers 7.12502
lthumb 8.80674 30.6596
rfemur -16.5015 -11.1665 22.3678
rtibia 45.4389
rfoot -24.675 -4.40296
rtoes 10.6577
lfemur -26.2427 12.8961 -18.9178
ltibia 57.0311
lfoot -5.44278 -26.7702
ltoes 17.3563
832
root 2.17372 17.4743 -4.38764 1.60911 19.6303 1.18538
lowerback 3.9699 -5.21015 -6.26438
upperback -2.57807 -7.32956 0.128857
thorax -4.10254 -3.4543 4.10938
lowerneck -17.6208 -2.9064 -3.3364
upperneck 22.9838 -3.93896 3.1447
head 10.4045 -1.72481 1.12151
rclavicle -4.84413e-014 5.56597e-015
rhumerus -51.8303 -8.46265 -34.1031
rradius 49.7753
rwrist -3.69802
rhand -5.80039 -12.1588
rfingers 7.12502
rthumb 20.0242 -41.147
lclavicle -4.84413e-014 5.56597e-015
lhumerus -29.2883 1.10358 75.4791
lradius 63.3386
lwrist -11.1806
lhand -17.2918 0.691372
lfingers 7.12502
lthumb 8.95382 30.4814
rfemur -16.113 -10.9437 23.07
rtibia 44.6559
rfoot -24.8098 -4.76151
rtoes 11.4051
lfemur -28.1628 13.5834 -18.0434
ltibia 59.5443
lfoot -1.66039 -27.3492
ltoes 17.0338
833
root 2.11765 17.4717 -4.39747 1.38111 19.8818 0.740225
lowerback 4.18972 -5.26038 -5.85652
upperback -2.47602 -7.38225 0.168315
thorax -4.15709 -3.49202 3.94884
lowerneck -17.6593 -2.93914 -3.37575
upperneck 22.9144 -3.99845 3.25323
head 10.3922 -1.74235 1.15761
rclavicle -8.52786e-014 -3.97569e-015
rhumerus -52.0175 -8.5943 -34.0669
rradius 49.5498
rwrist -3.60776
rhand -5.71611 -12.234
rfingers 7.12502
rthumb 20.1052 -41.2137
lclavicle -8.52786e-014 -3.97569e-015
lhumerus -28.6414 0.634219 75.4755
lradius 64.1569
lwrist -11.4792
lhand -17.2105 0.569016
lfingers 7.12502
lthumb 9.03227 30.3556
rfemur -15.7348 -10.8077 23.7466
rtibia 43.9486
rfoot -24.8549 -4.97591
rtoes 12.0673
lfemur -30.1679 14.1407 -17.134
ltibia 62.09
lfoot 1.99408 -27.537
ltoes 16.1683
834
root 2.06274 17.4704 -4.4076 1.11255 20.1128 0.297316
lowerback 4.4403 -5.2984 -5.46554
upperback -2.3621 -7.41934 0.21111
thorax -4.21661 -3.52129 3.80309
lowerneck -17.6768 -2.97614 -3.42405
upperneck 22.8304 -4.06091 3.36031
head 10.3711 -1.76255 1.19442
rclavicle -2.49847e-014 1.27222e-014
rhumerus -52.1911 -8.70064 -34.0411
rradius 49.3264
rwrist -3.51585
rhand -5.58331 -12.326
rfingers 7.12502
rthumb 20.2329 -41.2922
lclavicle -2.49847e-014 1.27222e-014
lhumerus -28.0098 0.228891 75.4106
lradius 65.0046
lwrist -11.7268
lhand -17.2121 0.49941
lfingers 7.12502
lthumb 9.03064 30.2861
rfemur -15.356 -10.7695 24.3856
rtibia 43.3046
rfoot -24.8269 -5.0528
rtoes 12.6736
lfemur -32.2249 14.5753 -16.205
ltibia 64.6296
lfoot 5.20075 -27.4081
ltoes 14.7556
835
root 2.00957 17.4706 -4.41796 0.810008 20.307 -0.126781
lowerback 4.72218 -5.32062 -5.10558
upperback -2.24163 -7.43699 0.255279
thorax -4.28555 -3.53952 3.6778
lowerneck -17.6675 -3.01482 -3.48053
upperneck 22.736 -4.12196 3.46107
head 10.3413 -1.784 1.23078
rclavicle 4.72611e-014 4.37326e-015
rhumerus -52.3418 -8.77428 -34.0255
rradius 49.1007
rwrist -3.40684
rhand -5.41747 -12.4267
rfingers 7.12502
rthumb 20.3923 -41.3759
lclavicle 4.72611e-014 4.37326e-015
lhumerus -27.4021 -0.0997469 75.2855
lradius 65.8684
lwrist -11.9014
lhand -17.3035 0.483826
lfingers 7.12502
lthumb 8.94243 30.2743
rfemur -14.9712 -10.8244 24.9721
rtibia 42.7144
rfoot -24.7418 -5.00533
rtoes 13.2406
lfemur -34.3067 14.9086 -15.2783
ltibia 67.1339
lfoot 7.71546 -27.0683
ltoes 12.9017
836
root 1.95855 17.4726 -4.42854 0.486311 20.4474 -0.512494
lowerback 5.03185 -5.32332 -4.79331
upperback -2.1209 -7.43139 0.297966
thorax -4.36678 -3.54418 3.57858
lowerneck -17.63 -3.05232 -3.54368
upperneck 22.6385 -4.17727 3.55133
head 10.3047 -1.80507 1.26561
rclavicle -4.39438e-014 -1.31198e-014
rhumerus -52.4609 -8.81215 -34.0206
rradius 48.8683
rwrist -3.26461
rhand -5.23833 -12.5244
rfingers 7.12502
rthumb 20.5644 -41.4551
lclavicle -4.39438e-014 -1.31198e-014
lhumerus -26.8262 -0.342286 75.1015
lradius 66.7342
lwrist -11.989
lhand -17.4833 0.521366
lfingers 7.12502
lthumb 8.76898 30.3192
rfemur -14.5801 -10.9544 25.4886
rtibia 42.1708
rfoot -24.6134 -4.84993
rtoes 13.7741
lfemur -36.3956 15.1708 -14.3803
ltibia 69.584
lfoot 9.4115 -26.5986
ltoes 10.7902
